<?xml version="1.0" encoding="UTF-8"?>
<svg width="119px" height="119px" viewBox="0 0 119 119" version="1.1" xmlns="http://www.w3.org/2000/svg" xmlns:xlink="http://www.w3.org/1999/xlink">
    <!-- Generator: Sketch 51.2 (57519) - http://www.bohemiancoding.com/sketch -->
    <title>services-active</title>
    <desc>Created with Sketch.</desc>
    <defs>
        <polygon id="path-1" points="52 0 68.0614334 34.2311949 104 39.7679079 78 66.3938986 84.1376564 104 52 86.2234186 19.8623436 104 26 66.3938986 0 39.7679079 35.923777 34.2311949"></polygon>
        <filter x="-11.7%" y="-10.3%" width="123.4%" height="123.5%" filterUnits="objectBoundingBox" id="filter-2">
            <feMorphology radius="1" operator="dilate" in="SourceAlpha" result="shadowSpreadOuter1"></feMorphology>
            <feOffset dx="0" dy="2" in="shadowSpreadOuter1" result="shadowOffsetOuter1"></feOffset>
            <feGaussianBlur stdDeviation="2" in="shadowOffsetOuter1" result="shadowBlurOuter1"></feGaussianBlur>
            <feColorMatrix values="0 0 0 0 0   0 0 0 0 0   0 0 0 0 0  0 0 0 0.0664628623 0" type="matrix" in="shadowBlurOuter1"></feColorMatrix>
        </filter>
    </defs>
    <g id="Page-1" stroke="none" stroke-width="1" fill="none" fill-rule="evenodd">
        <g id="Home" transform="translate(-662.000000, -787.000000)">
            <g id="Categories" transform="translate(415.000000, 793.000000)">
                <g id="services-active" transform="translate(254.000000, 0.000000)">
                    <g id="Fill-1-Copy">
                        <use fill="black" fill-opacity="1" filter="url(#filter-2)" xlink:href="#path-1"></use>
                        <use fill="#FFFFFF" fill-rule="evenodd" xlink:href="#path-1"></use>
                    </g>
                    <g id="home" transform="translate(36.000000, 38.000000)" stroke="#EA4335" stroke-linecap="round" stroke-linejoin="round" stroke-width="2">
                        <path d="M0,12.6 L16,0 L32,12.6 L32,32.4 C32,34.3882251 30.4081236,36 28.4444444,36 L3.55555556,36 C1.59187645,36 0,34.3882251 0,32.4 L0,12.6 Z" id="Shape"></path>
                        <polyline id="Shape" points="11 36 11 18 22 18 22 36"></polyline>
                    </g>
                </g>
            </g>
        </g>
    </g>
</svg>